<?xml version="1.0" encoding="UTF-8" standalone="no"?>
<svg
   width="666.66699"
   height="666.66699"
   viewBox="0 0 20.000009 20.000009"
   fill="none"
   version="1.1"
   id="svg1"
   sodipodi:docname="mail-lock-svgrepo-com.svg"
   xmlns:inkscape="http://www.inkscape.org/namespaces/inkscape"
   xmlns:sodipodi="http://sodipodi.sourceforge.net/DTD/sodipodi-0.dtd"
   xmlns="http://www.w3.org/2000/svg"
   xmlns:svg="http://www.w3.org/2000/svg">
  <defs
     id="defs1" />
  <sodipodi:namedview
     id="namedview1"
     pagecolor="#ffffff"
     bordercolor="#000000"
     borderopacity="0.25"
     inkscape:showpageshadow="2"
     inkscape:pageopacity="0.0"
     inkscape:pagecheckerboard="0"
     inkscape:deskcolor="#d1d1d1" />
  <path
     d="m 9.0000018,17.500006 c 0.5523,0 1.0000002,-0.4477 1.0000002,-1 0,-0.5523 -0.4477002,-1 -1.0000002,-1 z M 18.000002,8.5000053 c 0,0.5523 0.4477,1 1,1 0.5523,0 1,-0.4477 1,-1 z m -16.7820102,6.9080007 0.891,-0.454 v 0 z m 0.87403,0.874 0.45399,-0.891 v 0 z M 17.908002,2.7179953 l 0.454,-0.89101 v 0 z m 0.874,0.87403 -0.891,0.45399 v 0 z m -16.6899802,-0.87403 -0.45399,-0.89101 v 0 z m -0.87403,0.87403 -0.89101005,-0.45399 v 0 z m 12.3319102,5.54148 0.5547,0.832 z m 5.6115,-2.53916 c 0.4596,-0.30635 0.5837,-0.92722 0.2774,-1.38675 -0.3064,-0.45953 -0.9272,-0.5837 -1.3868,-0.27735 z M 1.7021618,4.7665853 c -0.45953,-0.30635 -1.08040005,-0.18218 -1.38675005,0.27735 -0.30635,0.45953 -0.18218,1.0804 0.27735,1.38675 z m 4.74759,4.36692 0.5547,-0.8321 z m 4.4822502,1.4491997 0.233,0.972501 v 0 z m -1.8643002,0 -0.2331,0.972501 v 0 z m -4.8677,-7.0826997 H 15.800002 v -2 H 4.2000018 Z m -2.2,9.8000007 V 5.7000053 H 1.7526211e-6 v 7.6000007 z m 7,2.2 h -4.8 v 2 h 4.8 z M 18.000002,5.7000053 v 2.8 h 2 v -2.8 z M 1.7526211e-6,13.300006 c 0,0.5436 -7.800000011e-4,1.0114 0.030569997379,1.395 0.0323,0.3954 0.10362,0.7886 0.29641,1.167 l 1.78201005,-0.908 c -0.02519,-0.0495 -0.06287,-0.1502 -0.08506,-0.4218 -0.02315,-0.2834 -0.02393,-0.6556 -0.02393,-1.2322 z m 4.2000000473789,2.2 c -0.57655,0 -0.94883,-8e-4 -1.23216,-0.0239 -0.27167,-0.0222 -0.37239,-0.0599 -0.42183,-0.0851 l -0.90798,1.782 c 0.37838,0.1928 0.7716,0.2641 1.16694,0.2964 0.38367,0.0314 0.85148,0.0306 1.39503,0.0306 z m -3.87302005,0.362 c 0.28762,0.5645 0.74656005,1.0234 1.31105005,1.311 l 0.90798,-1.782 c -0.18816,-0.0959 -0.34114,-0.2488 -0.43702,-0.437 z M 15.800002,3.5000053 c 0.5766,0 0.9488,7.8e-4 1.2322,0.02393 0.2716,0.02219 0.3723,0.05987 0.4218,0.08506 l 0.908,-1.78201 c -0.3784,-0.19279 -0.7716,-0.26411 -1.167,-0.29641 -0.3836,-0.03135 -0.8514,-0.03057 -1.395,-0.03057 z m 4.2,2.2 c 0,-0.54355 8e-4,-1.01136 -0.0306,-1.39503 -0.0323,-0.39534 -0.1036,-0.78856 -0.2964,-1.16694 l -1.782,0.90798 c 0.0252,0.04944 0.0629,0.15016 0.0851,0.42183 0.0231,0.28333 0.0239,0.65561 0.0239,1.23216 z m -2.546,-2.09101 c 0.1882,0.09588 0.3411,0.24886 0.437,0.43702 l 1.782,-0.90798 c -0.2876,-0.56449 -0.7465,-1.02343 -1.311,-1.31105 z M 4.2000018,1.5000053 c -0.54355,0 -1.01136,-7.8e-4 -1.39503,0.03057 -0.39534,0.0323 -0.78856,0.10362 -1.16694,0.29641 l 0.90798,1.78201 c 0.04944,-0.02519 0.15016,-0.06287 0.42183,-0.08506 0.28333,-0.02315 0.65561,-0.02393 1.23216,-0.02393 z m -2.2,4.2 c 0,-0.57655 7.8e-4,-0.94883 0.02393,-1.23216 0.02219,-0.27167 0.05987,-0.37239 0.08506,-0.42183 l -1.78201005,-0.90798 c -0.19279,0.37838 -0.26411,0.7716 -0.29641,1.16694 C -7.782474e-4,4.6886453 1.752621e-6,5.1564553 1.752621e-6,5.7000053 Z m -0.36197,-3.87302 c -0.56449,0.28762 -1.02343005,0.74656 -1.31105005,1.31105 l 1.78201005,0.90798 c 0.09588,-0.18816 0.24886,-0.34114 0.43702,-0.43702 z m 12.4665702,8.13852 5.0568,-3.37116 -1.1094,-1.6641 -5.0568,3.37116 z m -13.51184025,-3.53482 5.30229005,3.53482 1.1094,-1.6641 -5.30229,-3.53482 z m 12.40244025,1.87072 c -1.3484,0.899 -1.8179,1.1942 -2.2962,1.3088 l 0.466,1.9450007 c 0.9084,-0.217701 1.7219,-0.777901 2.9396,-1.5897007 z m -7.1001502,1.6641 c 1.21768,0.8117997 2.0312,1.3719997 2.93955,1.5897007 l 0.4661,-1.9450007 c -0.4784,-0.1146 -0.9479,-0.4098 -2.29625,-1.3088 z m 4.8039502,-0.3553 c -0.4596,0.1101 -0.9387002,0.1101 -1.3983002,0 l -0.4661,1.9450007 c 0.766,0.1835 1.5645002,0.1835 2.3304002,0 z m 3.301,5.8898007 h 4 v -2 h -4 z m 4,0 v 1 h 2 v -1 z m 0,1 h -4 v 2 h 4 z m -4,0 v -1 h -2 v 1 z m 0,0 h -2 c 0,1.1046 0.8954,2 2,2 z m 4,0 v 2 c 1.1046,0 2,-0.8954 2,-2 z m 0,-1 h 2 c 0,-1.1046 -0.8954,-2 -2,-2 z m -4,-2 c -1.1046,0 -2,0.8954 -2,2 h 2 z m 1,1 v -1 h -2 v 1 z m 2,-1 v 1 h 2 v -1 z m -1,-1 c 0.5523,0 1,0.4477 1,1 h 2 c 0,-1.6569 -1.3431,-3.000001 -3,-3.000001 z m -1,1 c 0,-0.5523 0.4477,-1 1,-1 v -2.000001 c -1.6569,0 -3,1.343101 -3,3.000001 z"
     fill="#000000"
     id="path1"
     style="fill:#00ab00;fill-opacity:1" />
</svg>
