<?xml version="1.0" encoding="UTF-8" standalone="no"?>
<!-- Uploaded to: SVG Repo, www.svgrepo.com, Generator: SVG Repo Mixer Tools -->

<svg
   width="735.03699"
   height="735.03699"
   viewBox="0 0 22.051109 22.051109"
   fill="none"
   version="1.1"
   id="svg2"
   sodipodi:docname="github.svg"
   xmlns:inkscape="http://www.inkscape.org/namespaces/inkscape"
   xmlns:sodipodi="http://sodipodi.sourceforge.net/DTD/sodipodi-0.dtd"
   xmlns="http://www.w3.org/2000/svg"
   xmlns:svg="http://www.w3.org/2000/svg">
  <defs
     id="defs2" />
  <sodipodi:namedview
     id="namedview2"
     pagecolor="#ffffff"
     bordercolor="#000000"
     borderopacity="0.25"
     inkscape:showpageshadow="2"
     inkscape:pageopacity="0.0"
     inkscape:pagecheckerboard="0"
     inkscape:deskcolor="#d1d1d1" />
  <g
     id="g2"
     transform="translate(0.88403786)"
     style="fill:#ffffff">
    <path
       d="m 2.5745227,2.0448251 c 0.05823,-1.03009 0.30429,-1.47803003 1.00992,-1.83774003 0.75925,-0.387161 1.95674,-0.206988003623 3.36582,0.50655 0.60692,0.30748003 0.66872,0.31374003 1.73236,0.17737 1.4138003,-0.18133 3.2339003,-0.18069 4.5388003,0.00166 0.9868,0.13790003 1.0516,0.13101003 1.66,-0.17711 2.0001,-1.012851 3.5792,-0.94658 4.151,0.17417 0.2854,0.55942003 0.3384,2.01101003 0.1171,3.20825003 -0.1227,0.66374 -0.1097,0.74661 0.1859,1.18217 2.0797,3.06473 0.5812,8.0324799 -2.9825,9.8863799 -0.2727,0.1419 -0.5025,0.2297 -0.6898,0.3012 -0.5751,0.2196 -0.7497,0.2863 -0.5383,1.2971 0.1018,0.4862 0.2244,1.695 0.2726,2.6864 0.0871,1.792 0.0858,1.8045 -0.2285,2.1701 -0.4278,0.4973 -1.0444,0.5057 -1.4622,0.0199 -0.2725,-0.3168 -0.2991,-0.4664 -0.2991,-1.6887 0,-1.8063 -0.198,-3.0069 -0.6658,-4.0357 -0.5563,-1.2243 -0.1439,-1.6808 1.1283,-1.9544 1.7683,-0.3804 3.1494,-1.4717 3.9192,-3.0968 0.7319,-1.5447999 0.8422,-3.6795899 -0.481,-4.9779199 -0.3763,-0.44718 -0.4025,-0.85222 -0.1338,-2.07359 0.1004,-0.45649 0.1846,-1.04541 0.1871,-1.30884 0.0038,-0.41602 -0.0341,-0.47884 -0.2896,-0.47884 -0.1617,0 -0.7795,0.23521 -1.3727,0.52264 l -0.9468,0.4589 c -0.0861,0.04171 -0.1824,0.05775 -0.2774,0.04685 -2.4075,-0.27634 -4.6951003,-0.28061 -7.1143803,0.00108 -0.09536,0.0111 -0.19209,-0.00494 -0.27847,-0.04686 l -0.9463,-0.4592 c -0.59326,-0.28795 -1.21103,-0.52341 -1.37268,-0.52341 -0.37376,0 -0.37938,0.27594 -0.0387,1.91537 0.20811,1.00125 0.34815,1.22435 -0.25346,2.02494 -0.90176,1.20004 -1.12701,2.6902 -0.64344,4.2558799 0.60947,1.973 2.10193,3.3059 4.20016,3.7506 1.26487,0.2681 1.59547,0.6179 1.11247,2.0683 -0.3802,1.1414 -0.6206,1.4356 -1.17313,1.4356 -0.74342,0 -1.20911,-0.644 -0.95283,-1.3179 0.11288,-0.297 0.0793,-0.3287 -0.61713,-0.5827 -2.12594,-0.7751 -3.75197,-2.5124 -4.49539,-4.8032 -0.57461,-1.7704599 -0.32178,-4.0749099 0.60003,-5.4677699 0.31386,-0.47425 0.31872,-0.51447 0.17225,-1.42236 -0.08287,-0.51395 -0.12769,-1.34114 -0.0996,-1.83837 z"
       fill="#0f0f0f"
       id="path1"
       style="fill:#ffffff" />
    <path
       d="m 1.8321527,14.996425 c -0.30635,-0.4595 -0.92722003,-0.5837 -1.38675003,-0.2773 -0.45952,0.3063 -0.5837,0.9272 -0.27735,1.3867 0.22617,0.3393 0.49674,0.618 0.72651,0.8477 0.04236,0.0424 0.08352,0.0833 0.12371003,0.1232 0.19247,0.1912 0.36241,0.36 0.53309,0.5604 0.37751,0.4431 0.75412,1.0399 0.96816,2.1101 0.09534,0.4767 0.43799,0.7335 0.62785,0.8457 0.2059,0.1216 0.43087,0.1933 0.616,0.24 0.37871,0.0955 0.83844,0.1451 1.27474,0.174 0.47896,0.0318 0.99793,0.0421 1.462,0.0449 3.4e-4,0.5519 0.44792,0.9993 0.99999,0.9993 0.55229,0 1,-0.4477 1,-1 v -1 c 0,-0.5523 -0.44771,-1 -1,-1 -0.09427,0 -0.19626,3e-4 -0.30429,7e-4 -0.58686,0.0018 -1.35181,0.0041 -2.02551,-0.0405 -0.32487,-0.0215 -0.59193,-0.052 -0.78777,-0.0893 -0.30158,-1.1839 -0.78879,-1.9716 -1.30868,-2.5819 -0.22982,-0.2697 -0.4678,-0.5057 -0.66137,-0.6977 -0.03624,-0.0359 -0.07092,-0.0703 -0.10371,-0.1031 -0.22335,-0.2233 -0.36945,-0.3821 -0.47662,-0.5429 z"
       fill="#0f0f0f"
       id="path2"
       style="fill:#ffffff" />
  </g>
</svg>
