<?xml version="1.0" encoding="UTF-8" standalone="no"?>
<!-- Uploaded to: SVG Repo, www.svgrepo.com, Generator: SVG Repo Mixer Tools -->

<svg
   fill="#000000"
   width="800"
   height="800"
   viewBox="0 0 1920 1920"
   version="1.1"
   id="svg1"
   sodipodi:docname="linkedin.svg"
   xmlns:inkscape="http://www.inkscape.org/namespaces/inkscape"
   xmlns:sodipodi="http://sodipodi.sourceforge.net/DTD/sodipodi-0.dtd"
   xmlns="http://www.w3.org/2000/svg"
   xmlns:svg="http://www.w3.org/2000/svg">
  <defs
     id="defs1" />
  <sodipodi:namedview
     id="namedview1"
     pagecolor="#ffffff"
     bordercolor="#000000"
     borderopacity="0.25"
     inkscape:showpageshadow="2"
     inkscape:pageopacity="0.0"
     inkscape:pagecheckerboard="0"
     inkscape:deskcolor="#d1d1d1" />
  <path
     d="M 478.234,600.75 V 1920 H 0.036 V 600.75 Z m 720.853,-2.438 v 77.737 c 69.807,-45.056 150.308,-71.249 272.38,-71.249 397.577,0 448.521,308.666 448.521,577.562 v 737.602 h -480.6 v -700.836 c 0,-117.867 -42.173,-140.215 -120.15,-140.215 -74.134,0 -120.151,23.55 -120.151,140.215 v 700.836 h -480.6 V 598.312 Z M 239.099,0 c 131.925,0 239.099,107.294 239.099,239.099 0,131.805 -107.174,239.099 -239.1,239.099 C 107.295,478.198 0,370.904 0,239.098 0,107.295 107.294,0 239.099,0 Z"
     fill-rule="evenodd"
     id="path1"
     style="fill:#ffffff" />
</svg>
